<svg width="35" height="36" viewBox="0 0 35 36" fill="none" xmlns="http://www.w3.org/2000/svg">
<path d="M22.8963 27.1835V10.25C22.8963 8.8693 21.777 7.75 20.3963 7.75H4.25538C2.87465 7.75 1.75537 8.8693 1.75537 10.25V26.814C1.75537 28.1947 2.87465 29.314 4.25538 29.314H6.22315" stroke="white" stroke-width="3" stroke-linecap="round" stroke-linejoin="round"/>
<path d="M33.2447 19.5811H22.901" stroke="white" stroke-width="3" stroke-linecap="round" stroke-linejoin="round"/>
<path d="M29.0943 29.3143H30.799C32.1868 29.3143 33.309 28.184 33.2988 26.796L33.241 18.8453L29.7598 11.7182C29.3405 10.8597 28.4688 10.3153 27.5135 10.3153H22.8638" stroke="white" stroke-width="3" stroke-linecap="round" stroke-linejoin="round"/>
<path d="M9.745 32.88C11.6725 32.88 13.235 31.3175 13.235 29.39C13.235 27.4626 11.6725 25.9 9.745 25.9C7.81753 25.9 6.255 27.4626 6.255 29.39C6.255 31.3175 7.81753 32.88 9.745 32.88Z" stroke="white" stroke-width="3" stroke-linecap="round" stroke-linejoin="round"/>
<path d="M25.5875 32.88C27.515 32.88 29.0775 31.3175 29.0775 29.39C29.0775 27.4626 27.515 25.9 25.5875 25.9C23.66 25.9 22.0975 27.4626 22.0975 29.39C22.0975 31.3175 23.66 32.88 25.5875 32.88Z" stroke="white" stroke-width="3" stroke-linecap="round" stroke-linejoin="round"/>
<path d="M8.57835 17.75H16.0733" stroke="white" stroke-width="3" stroke-linecap="round" stroke-linejoin="round"/>
<path d="M12.326 14.0024V21.4974" stroke="white" stroke-width="3" stroke-linecap="round" stroke-linejoin="round"/>
<path d="M22.0972 29.3137H13.2349" stroke="white" stroke-width="3" stroke-linecap="round" stroke-linejoin="round"/>
</svg>
