<svg width="35" height="36" viewBox="0 0 35 36" fill="none" xmlns="http://www.w3.org/2000/svg">
<path d="M17.5 20.25C20.9518 20.25 23.75 17.4518 23.75 14C23.75 10.5482 20.9518 7.75 17.5 7.75C14.0482 7.75 11.25 10.5482 11.25 14C11.25 17.4518 14.0482 20.25 17.5 20.25Z" stroke="white" stroke-width="3" stroke-linecap="round" stroke-linejoin="round"/>
<path d="M6.82495 29.9999C7.94055 28.1687 9.50848 26.6552 11.378 25.6052C13.2475 24.5549 15.3557 24.0033 17.5 24.0033C19.6442 24.0033 21.7524 24.5549 23.6219 25.6052C25.4915 26.6552 27.0593 28.1687 28.175 29.9999" stroke="white" stroke-width="3" stroke-linecap="round" stroke-linejoin="round"/>
<path d="M17.5 34C26.4748 34 33.75 26.7248 33.75 17.75C33.75 8.77538 26.4748 1.5 17.5 1.5C8.52538 1.5 1.25 8.77538 1.25 17.75C1.25 26.7248 8.52538 34 17.5 34Z" stroke="white" stroke-width="3" stroke-linecap="round" stroke-linejoin="round"/>
</svg>
