<svg width="31" height="36" viewBox="0 0 31 36" fill="none" xmlns="http://www.w3.org/2000/svg">
<path d="M11.75 10.3843C11.75 9.6426 11.9699 8.91757 12.382 8.3009C12.794 7.6842 13.3797 7.20355 14.0649 6.91972C14.7502 6.6359 15.5042 6.56165 16.2316 6.70632C16.959 6.85102 17.6272 7.20817 18.1517 7.73262C18.6761 8.25707 19.0332 8.92525 19.1779 9.6527C19.3226 10.3801 19.2484 11.1341 18.9646 11.8193C18.6807 12.5046 18.2001 13.0902 17.5834 13.5023C16.9667 13.9143 16.2417 14.1343 15.5 14.1343V15.3843" stroke="white" stroke-width="3" stroke-linecap="round" stroke-linejoin="round"/>
<path d="M15.5 20.5405C15.1548 20.5405 14.875 20.2607 14.875 19.9155C14.875 19.5704 15.1548 19.2905 15.5 19.2905" stroke="white" stroke-width="3" stroke-linecap="round" stroke-linejoin="round"/>
<path d="M15.5 20.5405C15.8452 20.5405 16.125 20.2607 16.125 19.9155C16.125 19.5704 15.8452 19.2905 15.5 19.2905" stroke="white" stroke-width="3" stroke-linecap="round" stroke-linejoin="round"/>
<path d="M29.25 34H5.5C4.50545 34 3.5516 33.605 2.84835 32.9018C2.1451 32.1985 1.75 31.2445 1.75 30.25C1.75 29.2555 2.1451 28.3015 2.84835 27.5982C3.5516 26.895 4.50545 26.5 5.5 26.5H26.75C27.413 26.5 28.049 26.2365 28.5177 25.7677C28.9865 25.299 29.25 24.663 29.25 24V4C29.25 3.33695 28.9865 2.70108 28.5177 2.23223C28.049 1.76339 27.413 1.5 26.75 1.5H5.5C4.52253 1.49965 3.58355 1.88099 2.8831 2.56276C2.18263 3.24455 1.77607 4.17288 1.75 5.15V30.15" stroke="white" stroke-width="3" stroke-linecap="round" stroke-linejoin="round"/>
<path d="M26.75 26.5V34" stroke="white" stroke-width="3" stroke-linecap="round" stroke-linejoin="round"/>
</svg>
